<?xml version="1.0" encoding="UTF-8" standalone="no"?>
<svg
   xmlns:dc="http://purl.org/dc/elements/1.1/"
   xmlns:cc="http://creativecommons.org/ns#"
   xmlns:rdf="http://www.w3.org/1999/02/22-rdf-syntax-ns#"
   xmlns:svg="http://www.w3.org/2000/svg"
   xmlns="http://www.w3.org/2000/svg"
   xmlns:sodipodi="http://sodipodi.sourceforge.net/DTD/sodipodi-0.dtd"
   xmlns:inkscape="http://www.inkscape.org/namespaces/inkscape"
   version="1.1"
   x="0px"
   y="0px"
   viewBox="0 0 138.061 119.752"
   enable-background="new 0 0 100 100"
   xml:space="preserve"
   id="svg4"
   sodipodi:docname="motobox-logo.svg"
   width="138.061"
   height="119.752"
   inkscape:version="0.92.3 (2405546, 2018-03-11)"><metadata
     id="metadata10"><rdf:RDF><cc:Work
         rdf:about=""><dc:format>image/svg+xml</dc:format><dc:type
           rdf:resource="http://purl.org/dc/dcmitype/StillImage" /><dc:title /></cc:Work></rdf:RDF></metadata><defs
     id="defs8" /><sodipodi:namedview
     pagecolor="#ffffff"
     bordercolor="#666666"
     borderopacity="1"
     objecttolerance="10"
     gridtolerance="10"
     guidetolerance="10"
     inkscape:pageopacity="0"
     inkscape:pageshadow="2"
     inkscape:window-width="1920"
     inkscape:window-height="1017"
     id="namedview6"
     showgrid="false"
     inkscape:zoom="2.36"
     inkscape:cx="-27.330508"
     inkscape:cy="50"
     inkscape:window-x="-8"
     inkscape:window-y="-8"
     inkscape:window-maximized="1"
     inkscape:current-layer="svg4" /><g
     id="g828"
     style="fill:#000000"
     transform="translate(19.030503,-17.674966)"><path
       style="fill:#000000;stroke-width:1.54042447"
       inkscape:connector-curvature="0"
       id="path2"
       d="m 87.379535,26.994509 4.81999,9.122394 c 0.54223,1.024382 0.14942,2.295232 -0.87496,2.837462 -0.31271,0.164825 -0.64852,0.243387 -0.97971,0.243387 -0.75327,0 -1.48189,-0.406672 -1.85776,-1.118348 l -4.81844,-9.123935 c -0.54223,-1.024382 -0.14942,-2.295232 0.87496,-2.837462 1.02438,-0.540689 2.29523,-0.149421 2.83592,0.876502 z m 31.651095,43.00403 c 0,11.108001 -9.03613,20.144131 -20.144125,20.144131 -11.108,0 -20.14413,-9.03613 -20.14413,-20.144131 0,-6.959638 3.54914,-13.105931 8.93138,-16.727469 l -1.53734,-2.909862 c -6.41741,4.182252 -10.67052,11.420707 -10.67052,19.635791 0,1.159939 -0.93966,2.099598 -2.0996,2.099598 -1.15994,0 -2.0996,-0.939659 -2.0996,-2.099598 0,-6.471323 2.23824,-12.428145 5.97839,-17.141844 l -5.17737,-9.797099 c -1.3109,0.894986 -2.896,1.418731 -4.60433,1.418731 h -0.12477 -28.02032 -0.009 c 0.57766,0.862637 1.04903,1.802296 1.39409,2.800491 h 22.20522 2.94837 0.097 l 0.13709,0.0031 0.2742,0.01078 c 0.18331,0.01848 0.36662,0.02927 0.54993,0.06316 0.36662,0.05238 0.72862,0.149422 1.08138,0.269575 0.35276,0.121693 0.69319,0.281897 1.01822,0.462127 0.32349,0.186391 0.62849,0.40051 0.91501,0.636195 1.13683,0.953523 1.91013,2.304475 2.15043,3.777121 0.11862,0.733242 0.10783,1.495752 -0.0447,2.224373 -0.0724,0.365081 -0.18177,0.719378 -0.31733,1.061353 l -0.10629,0.252629 -0.0816,0.18023 -0.1525,0.335812 -4.89547,10.732138 -1.2231,2.681879 -0.61154,1.341709 -0.15251,0.335813 c -0.0539,0.115532 -0.0955,0.212579 -0.16174,0.349676 l -0.18485,0.386647 -0.19872,0.380485 c -1.07829,2.017956 -2.63874,3.772499 -4.50266,5.097264 -1.86083,1.327846 -4.03437,2.21359 -6.29417,2.57405 -0.56534,0.0878 -1.13375,0.150961 -1.70525,0.172527 -0.14326,0.0092 -0.28498,0.0077 -0.42824,0.01232 l -0.21412,0.0031 h -0.18485 -0.73632 -2.94837 -22.02653 c -0.73787,1.189208 -1.60975,2.318339 -2.62027,3.364287 0,0 0,0 0,0 -3.94656,4.091368 -9.22098,6.149375 -14.5015499,6.149375 -5.03719,0 -10.079,-1.871616 -13.98089,-5.636413 -3.8726301,-3.73553 -6.0584901,-8.755773 -6.1555401,-14.134935 -0.0293,-1.598961 0.12939,-3.173275 0.46213,-4.698295 l -5.3006,-2.278288 c -1.54505,-0.663923 -2.25827,-2.453896 -1.59588,-3.998942 0.66238,-1.545045 2.45389,-2.258262 3.99894,-1.595879 0.037,0.0154 0.0847,0.03851 0.12169,0.05546 l 4.8523401,2.341445 c 0.83953,-1.501914 1.87778,-2.9037 3.10395,-4.176091 5.85208006,-6.066191 14.62017,-7.66053 22.0034299,-4.707537 l 1.5435,-2.922185 c -2.95761,-1.238501 -6.16632,-1.860833 -9.4705299,-1.802297 -6.25412,0.112451 -12.09079,2.654152 -16.43479,7.156812 -0.41129,0.426698 -0.9612201,0.642357 -1.5111501,0.642357 -0.52529,0 -1.04903,-0.195633 -1.45724,-0.588442 -0.83491,-0.805642 -0.85802,-2.133488 -0.0539,-2.968398 3.6816201,-3.817171 8.2736201,-6.438974 13.3031101,-7.660531 C 0.74321516,42.568241 0.45823516,41.814973 0.45823516,40.995467 v -1.765366 c 0,-2.897539 2.34914994,-5.248226 5.24821994,-5.248226 H 22.438545 c 2.46776,0 4.73065,0.868799 6.50368,2.315258 h 12.56524 c 2.82822,-4.889308 8.11496,-8.179655 14.1719,-8.179655 h 11.78579 c 4.51807,0 8.17966,3.66313 8.17966,8.179655 v 0 c 0,1.159939 -0.24339,2.261343 -0.67779,3.261078 l 5.30984,10.048189 c 1.20461,-1.099863 2.50627,-2.093437 3.89111,-2.969938 L 70.490325,20.754249 c -0.34352,-0.650059 -0.32195,-1.434135 0.0585,-2.064169 0.38049,-0.630033 1.06135,-1.015139 1.79768,-1.015139 h 14.29052 c 1.15993,0 2.09959,0.939659 2.09959,2.099598 0,1.15994 -0.93966,2.099599 -2.09959,2.099599 h -10.80759 l 12.04766,22.796742 c 3.37507,-1.472646 7.09827,-2.292152 11.00941,-2.292152 1.159935,0 2.099595,0.939659 2.099595,2.099599 0,1.15994 -0.93966,2.099599 -2.099595,2.099599 -3.20408,0 -6.25874,0.646978 -9.04229,1.81616 l 1.53734,2.909862 c 2.31988,-0.935038 4.85388,-1.45108 7.50495,-1.45108 11.107995,0.0015 20.144125,9.039211 20.144125,20.145671 z M 19.009335,53.264908 c 0.97047,0.6516 1.8978,1.395625 2.76814,2.235156 3.74631,3.613836 5.78738,8.339858 6.10625,13.166008 h 2.66647 c -0.17407,-5.781213 -2.49241,-11.354469 -6.52524,-15.549045 -1.08138,-1.039786 -2.2444,-1.9625 -3.4752,-2.765062 z m -4.93552,15.401164 c -0.24647,-1.16302 -0.80872,-2.208969 -1.5928,-3.04696 l -1.61128,3.04696 z M 8.7716751,63.65199 c -0.31887,-0.04929 -0.64698,-0.07548 -0.97971,-0.07548 -2.11654,0 -3.99586,1.029003 -5.16658,2.6141 l 3.82949,1.846969 z m -7.24,7.779144 c 0.65314,2.854406 3.21025,4.990975 6.25875,4.990975 1.19229,0 2.3090899,-0.32811 3.2672399,-0.896527 z m 16.2776699,2.087275 4.81691,2.324501 c 0.38048,-0.968927 0.66238,-1.967122 0.84569,-2.979181 h -5.45618 c -0.0616,0.221821 -0.1294,0.439021 -0.20642,0.65468 z m 5.8644,-4.852337 c -0.30963,-3.723206 -1.91783,-7.352446 -4.81229,-10.143695 -0.5792,-0.559174 -1.19075,-1.065974 -1.82848,-1.518859 l -2.52476,4.776857 c 2.05493,1.683684 3.4675,4.120635 3.81563,6.885697 z m -29.6947699,-6.646932 4.82615,2.329122 c 1.88240006,-2.982262 5.2051,-4.969409 8.9853,-4.969409 1.04441,0 2.05338,0.154042 3.0069099,0.43594 l 2.52167,-4.772235 c -1.78073,-0.656221 -3.6538799,-0.982791 -5.5270399,-0.982791 -4.18071,0 -8.35525994,1.628229 -11.47924,4.867742 -0.9104,0.94582 -1.69139,1.984066 -2.33375,3.091631 z M 19.268125,81.06957 v 0 c 0.45443,-0.47137 0.87496,-0.965846 1.26007,-1.475727 l -5.12345,-2.201266 c -1.9317,1.988688 -4.63052,3.227189 -7.6143199,3.227189 -5.8567,0 -10.61969,-4.764533 -10.61969,-10.619686 0,-0.146341 0.005,-0.292681 0.0108,-0.437481 l -5.12038,-2.199726 c -0.15866,0.956604 -0.23106,1.934773 -0.21411,2.925266 0.077,4.259274 1.80691,8.232028 4.8739,11.189643 6.32806,6.103162 16.4440299,5.919852 22.5471899,-0.408212 z m 43.64023,-29.591554 h -21.53822 v 2.321419 c 1.06598,0.335813 2.02104,0.919634 2.80049,1.683684 1.26315,-1.240041 2.99459,-2.005632 4.90009,-2.005632 h 5.63642 c 1.98714,0 3.80793,1.004356 4.86774,2.68496 1.05981,1.680603 1.18304,3.755554 0.32657,5.548609 l -3.05312,6.398923 c -1.37868,2.888296 -4.3363,4.75375 -7.53576,4.75375 h -7.69288 -6.12473 -2.36609 c -0.16328,0.04159 -0.33427,0.0647 -0.50834,0.0647 -0.0416,0 -0.0816,-0.0015 -0.12323,-0.0031 -0.13556,-0.0077 -0.2665,-0.02927 -0.39435,-0.06162 h -4.37943 c -0.17099,1.203071 -0.45134,2.393819 -0.84107,3.55684 h 20.05016 2.94838 0.73632 0.18331 l 0.15404,-0.0031 c 0.10321,-0.0031 0.20642,0 0.30809,-0.0077 0.41129,-0.0154 0.8195,-0.06162 1.22618,-0.124775 1.62206,-0.258791 3.18559,-0.893446 4.52422,-1.850049 1.34017,-0.953523 2.4616,-2.21205 3.23643,-3.66313 l 0.14326,-0.272655 0.13248,-0.278817 c 0.0416,-0.08318 0.0986,-0.211038 0.14788,-0.318868 l 0.1525,-0.335812 0.61155,-1.34171 1.2231,-2.681879 4.89547,-10.729056 0.1525,-0.335813 0.0385,-0.08318 c 0.0108,-0.02619 0.0293,-0.06316 0.0324,-0.07086 l 0.0354,-0.08626 c 0.0447,-0.115532 0.0832,-0.232604 0.10475,-0.349676 0.0508,-0.232604 0.0508,-0.46983 0.0139,-0.705515 -0.0739,-0.469829 -0.33581,-0.931957 -0.70705,-1.240041 -0.094,-0.07548 -0.19102,-0.1448 -0.29422,-0.204877 -0.10475,-0.05545 -0.2095,-0.10783 -0.32195,-0.14634 -0.11245,-0.03543 -0.22645,-0.07086 -0.3466,-0.08626 -0.0585,-0.01386 -0.12169,-0.01232 -0.18177,-0.02157 l -0.094,-0.0031 -0.0478,-0.0031 h -0.0863 -2.94529 z m 51.924615,18.520523 c 0,-8.792743 -7.15373,-15.946474 -15.946465,-15.946474 -1.94402,0 -3.80639,0.349676 -5.53012,0.988953 l 2.52167,4.772235 c 0.95352,-0.281898 1.9625,-0.435941 3.00691,-0.435941 5.856685,0 10.619685,4.764533 10.619685,10.619687 0,5.856694 -4.76454,10.619686 -10.619685,10.619686 -5.85515,0 -10.61969,-4.764533 -10.61969,-10.619686 0,-3.310372 1.52194,-6.269528 3.90344,-8.219705 l -2.52168,-4.770695 c -4.05747,2.894458 -6.707,7.637425 -6.707,12.9904 0,8.792743 7.15373,15.946474 15.94647,15.946474 8.792735,0 15.946465,-7.152191 15.946465,-15.944934 z m -22.368495,0 c 0,3.541436 2.88059,6.42203 6.42203,6.42203 3.541435,0 6.422025,-2.880594 6.422025,-6.42203 0,-3.541436 -2.88059,-6.422029 -6.422025,-6.422029 -0.33273,0 -0.66084,0.02619 -0.97971,0.07548 l 2.835915,5.366839 c 0.54223,1.024383 0.14942,2.295233 -0.874955,2.837462 -0.31271,0.164826 -0.64852,0.243387 -0.97971,0.243387 -0.75327,0 -1.48189,-0.406672 -1.85775,-1.118348 l -2.83438,-5.362218 c -1.07214,1.147617 -1.73144,2.688041 -1.73144,4.379427 z m -106.183,-23.55463 c 0.47599,0 0.95661,-0.161745 1.34941,-0.492936 2.4415801,-2.051846 5.1681301,-3.710883 8.1057201,-4.930899 1.07059,-0.445183 1.57739,-1.672901 1.13375,-2.743496 -0.44518,-1.070595 -1.6729,-1.577395 -2.7435,-1.133752 -3.33193,1.384841 -6.4266501,3.26724 -9.1963301,5.594821 -0.88729,0.745566 -1.00282,2.070331 -0.25571,2.957615 0.41437,0.494477 1.00898,0.748647 1.60666,0.748647 z" /><g
       aria-label="MotoBox"
       style="font-style:normal;font-variant:normal;font-weight:normal;font-stretch:normal;font-size:40px;line-height:1.25;font-family:'Juice ITC';-inkscape-font-specification:'Juice ITC';letter-spacing:0px;word-spacing:0px;fill:#000000;fill-opacity:1;stroke:none"
       id="text819"><path
         d="m -17.209526,108.30589 h -1.152344 q -0.09766,0 -0.175781,-0.0586 -0.05859,-0.0781 -0.05859,-0.17578 0,-0.11719 0.05859,-0.17578 0.07813,-0.0781 0.175781,-0.0781 h 5.292969 l 1.875,17.91016 2.4023437,-17.91016 h 5.3125 q 0.1171875,0 0.1953125,0.0781 0.078125,0.0586 0.078125,0.15625 0,0.11718 -0.078125,0.19531 -0.078125,0.0586 -0.1953125,0.0586 h -1.2695313 v 28.37891 h 1.2695313 q 0.058594,0 0.078125,0.0391 0.058594,0.0977 0.058594,0.23438 0,0.11718 -0.039063,0.17578 -0.039063,0.0586 -0.097656,0.0586 h -6.4257813 q -0.078125,0 -0.1562504,-0.0586 -0.05859,-0.0781 -0.05859,-0.19531 0,-0.11719 0.05859,-0.17579 0.078125,-0.0781 0.1562504,-0.0781 h 1.3476563 v -27.10938 l -3.4374997,26.9336 q -0.07813,0.52734 -0.136719,0.60547 -0.05859,0.0781 -0.175781,0.0781 h -1.269532 q -0.117187,0 -0.175781,-0.0781 -0.05859,-0.0781 -0.117187,-0.60547 l -2.8125,-26.66016 v 24.76563 q 0,1.01562 0.195312,1.42578 0.214844,0.41015 0.722656,0.58594 l 0.878907,0.0781 q 0.09766,0.0586 0.09766,0.23438 0,0.15625 -0.05859,0.21484 -0.03906,0.0391 -0.234375,0.0391 h -3.457031 q -0.07813,0 -0.136719,-0.0586 -0.03906,-0.0586 -0.03906,-0.15625 0,-0.0977 0.03906,-0.13672 0.05859,-0.0586 0.351563,-0.17578 0.605468,-0.23438 0.820312,-0.60547 0.292969,-0.50781 0.292969,-1.44531 z"
         style="font-style:normal;font-variant:normal;font-weight:normal;font-stretch:normal;font-family:'Bodoni MT Poster Compressed';-inkscape-font-specification:'Bodoni MT Poster Compressed';letter-spacing:9.47999859px;word-spacing:-0.65999937px;fill:#000000"
         id="path830"
         inkscape:connector-curvature="0" /><path
         d="m 7.8954735,128.14964 v -3.82812 q 0,-4.58985 1.5429687,-6.73828 1.1328128,-1.58203 2.8906248,-1.58203 2.207031,0 3.378906,2.32421 1.191407,2.32422 1.191407,6.15235 v 4.23828 q 0,4.98047 -1.523438,7.14844 -1.09375,1.5625 -2.910156,1.5625 -1.054688,0 -1.933594,-0.54688 -0.8593748,-0.54687 -1.5624998,-1.97265 -0.703125,-1.42579 -0.8984375,-3.78907 -0.1757812,-2.36328 -0.1757812,-2.96875 z m 5.5078125,-9.6289 q 0,-1.09375 -0.332031,-1.52344 -0.3125,-0.44922 -0.742188,-0.44922 -0.371094,0 -0.664062,0.37109 -0.292969,0.35157 -0.292969,1.09375 v 16.40625 q 0,1.54297 0.351562,2.08985 0.273438,0.39062 0.742188,0.39062 0.449219,0 0.683594,-0.33203 0.253906,-0.35156 0.253906,-1.48437 z"
         style="font-style:normal;font-variant:normal;font-weight:normal;font-stretch:normal;font-family:'Bodoni MT Poster Compressed';-inkscape-font-specification:'Bodoni MT Poster Compressed';letter-spacing:9.47999859px;word-spacing:-0.65999937px;fill:#000000"
         id="path832"
         inkscape:connector-curvature="0" /><path
         d="m 29.055161,116.74339 h -0.917969 q -0.175781,0 -0.273438,-0.0781 -0.09766,-0.0781 -0.09766,-0.19531 0,-0.13672 0.175781,-0.29297 1.640625,-1.26953 2.382813,-2.51953 0.742187,-1.26954 1.308594,-2.94922 0.410156,-1.21094 0.429687,-1.67969 l 0.03906,-0.89844 q 0.05859,-0.0977 0.175781,-0.0977 0.117187,0 0.175781,0.0586 0.07813,0.0586 0.07813,0.15625 v 7.98828 h 2.910156 q 0.15625,0 0.234375,0.0781 0.09766,0.0781 0.09766,0.17578 0,0.11718 -0.07813,0.17578 -0.09766,0.0781 -0.253907,0.0781 h -2.910156 v 18.1836 q 0,0.83984 0.234375,1.15234 0.15625,0.23438 0.46875,0.23438 0.664063,0 1.171875,-0.76172 0.761719,-1.13282 0.761719,-3.47657 v -2.85156 q 0,-0.27344 0.117187,-0.42969 0.07813,-0.0977 0.195313,-0.0977 0.117187,0 0.195312,0.0977 0.117188,0.15625 0.117188,0.42969 v 2.16797 q 0,3.30078 -1.054688,4.66797 -1.035156,1.36719 -2.597656,1.36719 -1.464844,0 -2.148437,-0.80078 -0.9375,-1.07422 -0.9375,-3.04688 z"
         style="font-style:normal;font-variant:normal;font-weight:normal;font-stretch:normal;font-family:'Bodoni MT Poster Compressed';-inkscape-font-specification:'Bodoni MT Poster Compressed';letter-spacing:9.47999859px;word-spacing:-0.65999937px;fill:#000000"
         id="path834"
         inkscape:connector-curvature="0" /><path
         d="m 46.699219,128.14964 v -3.82812 q 0,-4.58985 1.542968,-6.73828 1.132813,-1.58203 2.890625,-1.58203 2.207032,0 3.378907,2.32421 1.191406,2.32422 1.191406,6.15235 v 4.23828 q 0,4.98047 -1.523438,7.14844 -1.09375,1.5625 -2.910156,1.5625 -1.054687,0 -1.933594,-0.54688 -0.859375,-0.54687 -1.5625,-1.97265 -0.703125,-1.42579 -0.898437,-3.78907 -0.175781,-2.36328 -0.175781,-2.96875 z m 5.507812,-9.6289 q 0,-1.09375 -0.332031,-1.52344 -0.3125,-0.44922 -0.742188,-0.44922 -0.371093,0 -0.664062,0.37109 -0.292969,0.35157 -0.292969,1.09375 v 16.40625 q 0,1.54297 0.351563,2.08985 0.273437,0.39062 0.742187,0.39062 0.449219,0 0.683594,-0.33203 0.253906,-0.35156 0.253906,-1.48437 z"
         style="font-style:normal;font-variant:normal;font-weight:normal;font-stretch:normal;font-family:'Bodoni MT Poster Compressed';-inkscape-font-specification:'Bodoni MT Poster Compressed';letter-spacing:9.47999859px;word-spacing:-0.65999937px;fill:#000000"
         id="path836"
         inkscape:connector-curvature="0" /><path
         d="m 67.624535,136.6848 v -28.37891 h -1.289063 q -0.214844,-0.13672 -0.214844,-0.2539 0,-0.0977 0.214844,-0.23438 h 5.761719 q 2.65625,0 4.335937,1.83594 1.699219,1.83594 1.699219,5.15625 0,2.03125 -0.585937,3.51562 -0.566407,1.46485 -1.777344,2.46094 -0.761719,0.625 -2.304688,1.19141 1.601563,0.58594 2.363282,1.1914 1.210937,0.9961 1.835937,2.42188 0.625,1.40625 0.625,3.47656 0,2.67578 -0.917969,4.7461 -0.625,1.44531 -2.050781,2.42187 -1.425781,0.95703 -3.417969,0.95703 h -5.566406 q -0.214844,-0.13672 -0.214844,-0.2539 0,-0.11719 0.214844,-0.25391 z m 4.023437,-28.37891 v 13.4375 h 1.035156 q 0.703125,0 1.035157,-0.35156 0.351562,-0.35156 0.351562,-1.17187 v -10.19532 q 0,-0.99609 -0.351562,-1.34765 -0.351563,-0.3711 -1.367188,-0.3711 z m 0,13.94532 v 14.43359 h 0.625 q 0.820313,0 1.308594,-0.46875 0.488281,-0.46875 0.488281,-1.26953 v -11.34766 q 0,-0.72265 -0.292969,-1.03515 -0.273437,-0.3125 -0.878906,-0.3125 z"
         style="font-style:normal;font-variant:normal;font-weight:normal;font-stretch:normal;font-family:'Bodoni MT Poster Compressed';-inkscape-font-specification:'Bodoni MT Poster Compressed';letter-spacing:9.47999859px;word-spacing:-0.65999937px;fill:#000000"
         id="path838"
         inkscape:connector-curvature="0" /><path
         d="m 89.565468,128.14964 v -3.82812 q 0,-4.58985 1.542969,-6.73828 1.132812,-1.58203 2.890625,-1.58203 2.207031,0 3.378906,2.32421 1.191406,2.32422 1.191406,6.15235 v 4.23828 q 0,4.98047 -1.523437,7.14844 -1.09375,1.5625 -2.910157,1.5625 -1.054687,0 -1.933593,-0.54688 -0.859375,-0.54687 -1.5625,-1.97265 -0.703125,-1.42579 -0.898438,-3.78907 -0.175781,-2.36328 -0.175781,-2.96875 z m 5.507812,-9.6289 q 0,-1.09375 -0.332031,-1.52344 -0.3125,-0.44922 -0.742187,-0.44922 -0.371094,0 -0.664063,0.37109 -0.292969,0.35157 -0.292969,1.09375 v 16.40625 q 0,1.54297 0.351563,2.08985 0.273437,0.39062 0.742187,0.39062 0.449219,0 0.683594,-0.33203 0.253906,-0.35156 0.253906,-1.48437 z"
         style="font-style:normal;font-variant:normal;font-weight:normal;font-stretch:normal;font-family:'Bodoni MT Poster Compressed';-inkscape-font-specification:'Bodoni MT Poster Compressed';letter-spacing:9.47999859px;word-spacing:-0.65999937px;fill:#000000"
         id="path840"
         inkscape:connector-curvature="0" /><path
         d="m 110.17828,116.74339 h -0.83985 l -0.0977,-0.0391 q -0.0781,-0.0781 -0.0781,-0.19531 0,-0.13672 0.17578,-0.27344 h 5.01953 q 0.0977,0 0.15625,0.0781 0.0781,0.0781 0.0781,0.19531 0,0.13672 -0.11719,0.21484 l -0.82031,0.0195 1.30859,6.23047 1.52344,-5.07812 q 0.0391,-0.0977 0.0391,-0.19532 0,-0.37109 -0.23437,-0.64453 -0.21485,-0.27343 -0.48828,-0.3125 -0.17579,-0.0195 -0.25391,-0.0781 -0.0586,-0.0586 -0.0586,-0.15625 0,-0.11719 0.0781,-0.17578 0.0977,-0.0977 0.23438,-0.0977 h 2.42187 q 0.0977,0 0.15625,0.0781 0.0781,0.0586 0.0781,0.17578 0,0.11718 -0.0586,0.17578 -0.0391,0.0586 -0.17578,0.0781 -0.95703,0.17578 -1.40625,1.67969 l -1.64062,5.54688 2.71484,12.71484 h 0.56641 q 0.11718,0 0.17578,0.0781 0.0781,0.0586 0.0781,0.17579 0,0.11718 -0.0781,0.19531 -0.0586,0.0586 -0.17578,0.0586 h -5.13672 q -0.0977,0 -0.15625,-0.0586 -0.0586,-0.0781 -0.0586,-0.19531 0,-0.11719 0.0586,-0.17579 0.0586,-0.0781 0.15625,-0.0781 h 1.03515 l -1.58203,-7.36328 -1.71875,5.91797 q -0.0586,0.17578 -0.0586,0.3125 0,0.42968 0.27344,0.76172 0.29296,0.33203 0.60546,0.37109 0.15625,0.0195 0.21485,0.0781 0.0586,0.0586 0.0586,0.15625 0,0.11719 -0.0781,0.17579 -0.0977,0.0977 -0.21485,0.0977 h -2.51953 q -0.19531,-0.13672 -0.19531,-0.2539 0,-0.11719 0.0391,-0.17579 0.0586,-0.0586 0.15625,-0.0781 0.42969,-0.0781 0.66406,-0.37109 0.35157,-0.46875 0.80079,-1.97266 l 1.79687,-5.97656 z"
         style="font-style:normal;font-variant:normal;font-weight:normal;font-stretch:normal;font-family:'Bodoni MT Poster Compressed';-inkscape-font-specification:'Bodoni MT Poster Compressed';letter-spacing:9.47999859px;word-spacing:-0.65999937px;fill:#000000"
         id="path842"
         inkscape:connector-curvature="0" /></g></g></svg>